<svg id="Capa_1" enable-background="new 0 0 512 512" height="512" viewBox="0 0 512 512" width="512" xmlns="http://www.w3.org/2000/svg" xmlns:xlink="http://www.w3.org/1999/xlink"><linearGradient id="SVGID_1_" gradientUnits="userSpaceOnUse" x1="25.607" x2="454.821" y1="486.393" y2="57.179"><stop offset="0" stop-color="#fd3a84"/><stop offset="1" stop-color="#ffa68d"/></linearGradient><linearGradient id="SVGID_2_" gradientUnits="userSpaceOnUse" x1="162.277" x2="387.715" y1="364.506" y2="139.068"><stop offset="0" stop-color="#ffc2cc"/><stop offset="1" stop-color="#fff2f4"/></linearGradient><g><g><g><path d="m317 0c-107.523 0-195 87.477-195 195 0 48.374 17.712 92.685 46.984 126.803l4.016 15.197 17.197 6.016c34.118 29.271 78.429 46.984 126.803 46.984 107.523 0 195-87.477 195-195s-87.477-195-195-195zm-151.508 367.721-6.492-15.721-14.721-5.492-10.606-10.607c-5.853-5.854-15.357-5.857-21.213 0l-108.066 108.066c-2.814 2.813-4.394 6.628-4.394 10.606s1.58 7.794 4.394 10.607l42.427 42.427c2.929 2.929 6.768 4.393 10.606 4.393s7.678-1.465 10.606-4.393l108.065-108.066c5.858-5.858 5.858-15.355 0-21.213z" fill="url(#SVGID_1_)"/></g></g><g><g><path d="m419.169 171.229c-2.819-3.911-7.348-6.229-12.169-6.229h-20.516l-26.068-52.136c-3.705-7.409-12.713-10.413-20.124-6.708-7.41 3.705-10.413 12.715-6.708 20.125l19.36 38.72h-71.888l19.36-38.72c3.705-7.41.702-16.42-6.708-20.125-7.407-3.703-16.419-.702-20.124 6.708l-26.068 52.136h-20.516c-4.821 0-9.35 2.318-12.169 6.229-2.819 3.912-3.586 8.94-2.062 13.514l30 90c2.043 6.125 7.775 10.257 14.231 10.257h120c6.456 0 12.188-4.132 14.23-10.257l30-90c1.525-4.574.758-9.602-2.061-13.514zm-250.185 150.574-24.704 24.704 21.213 21.213 24.705-24.705c-7.601-6.519-14.694-13.612-21.214-21.212z" fill="url(#SVGID_2_)"/></g></g></g></svg>